<?xml version="1.0" encoding="UTF-8"?>
<!-- Generated by Pixelmator Pro 3.3.2 -->
<svg width="425" height="306" viewBox="0 0 425 306" xmlns="http://www.w3.org/2000/svg" xmlns:xlink="http://www.w3.org/1999/xlink">
    <g id="g1">
        <path id="path1" fill="#f87210" stroke="none" d="M 395.130005 128.769989 C 371.944 94.845001 357.341003 90.123993 340.166992 87.544998 C 322.993011 84.968994 287.770996 110.733994 278.765015 114.168991 C 269.743988 117.606995 265.878998 114.597992 252.143997 100.856995 C 220.354004 42.027008 162.813995 7.247986 133.184006 3.38501 C 103.558998 -0.480011 64.478996 17.122009 53.743999 22.705994 C 40.764 20.776001 29.905001 22.015991 21.549999 24.138 C 18.868999 26.178986 12.268 30.420013 14.109 32.619995 C 13.98 32.597992 13.801 32.565002 13.646 32.536987 C 18.995001 33.582001 24.070999 35.432007 24.554001 36.876007 C 24.982 39.45401 25.407 54.479996 25.407 58.772995 C 25.407 63.069 29.707001 67.793991 30.131001 71.229004 C 30.131001 73.813995 30.767 92.285995 30.671 102.591003 C 31.448999 104.225998 33.553001 105.828003 35.195 107.196991 C 34.91 107.266998 34.527 107.337997 34.101002 107.395004 C 35.068001 107.332993 36.073002 107.139999 37.103001 106.822998 C 37.013 103.130005 36.644001 73.091003 48.957001 70.386993 C 55.999001 69.427002 59.84 74.548996 62.080002 74.548996 C 64.640999 74.227997 66.560997 60.145004 65.600998 58.225006 C 64.640999 56.304993 59.200001 51.503006 63.040001 51.184006 C 66.880997 50.863007 70.401001 46.382996 74.241997 42.540985 C 78.083 38.700012 90.566002 35.179993 94.085999 45.102997 C 102.087997 50.544006 132.173996 59.826996 133.774994 62.065994 C 128.475998 65.679993 122.635002 69.651993 120.068001 71.399002 C 120.139999 71.481995 120.246002 71.582001 120.302002 71.658997 C 120.302002 71.658997 111.287003 76.811996 103.557999 79.815994 C 95.825996 82.819 97.119003 86.259003 97.543999 89.261993 C 97.978996 92.272003 124.171997 114.595001 126.744003 117.168991 C 129.317993 119.748001 132.328003 119.317993 134.473999 118.46199 C 136.619995 117.602997 133.613998 107.298004 133.613998 107.298004 C 133.613998 107.298004 122.882004 95.701996 118.154999 90.121994 C 121.591003 88.403992 132.328003 83.679993 137.050003 81.964005 C 137.380005 81.964005 138.307007 82.447998 139.630997 83.265991 L 149.776993 77.218994 C 149.776993 77.218994 158.371002 83.871994 168.598999 92.662994 C 168.363007 92.205002 168.095001 91.735992 167.914001 91.300003 C 167.914001 91.300003 205.895996 113.918991 215.285004 137.817993 C 218.634995 151.962997 217.768997 178.763 224.289993 192.462006 C 229.703995 199.803009 236.126999 206.502014 238.815994 211.212006 C 243.968002 220.229004 252.556 236.973999 253.848999 243.845001 C 255.128998 250.714996 258.567993 279.484009 256.845001 285.067993 C 255.128998 289.790009 255.559998 297.091003 263.721985 298.380005 C 271.878998 299.67099 268.438995 295.806 269.730011 292.799988 C 271.015991 289.790009 268.438995 251.144012 269.303986 238.260986 C 261.997009 228.817993 260.286011 217.651001 261.140991 209.065002 C 265.437012 198.329987 268.013 173.854996 268.013 159.685989 C 266.725006 146.373993 267.154999 135.639999 274.024994 129.623993 C 279.553009 124.791 291.192993 137.735001 301.570007 143.205994 C 303.153015 143.640991 311.828003 145.72699 319.214996 141.526993 C 327.376007 136.884995 331.21701 133.523987 339.859985 134.005997 C 348.471985 134.483994 364.859985 141.954987 371.627014 153.25 C 378.796997 159.185989 385.536011 165.103989 390.821014 168.274994 C 403.70401 176.001999 415.72699 172.996994 421.738007 173.425995 C 423.458008 160.556 413.15799 148.955994 395.127991 128.776001 Z M 35.869999 70.710999 C 35.869999 70.710999 35.868 70.707001 35.865002 70.703003 C 35.855 70.705002 35.847 70.707993 35.835999 70.710999 C 35.835999 70.710999 34.917 69.384003 35.041 68.054993 C 35.035 66.860992 35.667999 65.632996 38.077999 65.246994 C 39.618 66.582001 40.745998 69.606003 35.869999 70.710999 Z"/>
        <path id="path2" fill="none" stroke="none" d="M 38.083 65.246994 C 35.673 65.632996 35.040001 66.860992 35.046001 68.054993 C 34.922001 69.384003 35.841 70.710999 35.841 70.710999 C 35.852001 70.709 35.860001 70.705994 35.869999 70.703003 C 35.872002 70.705994 35.875 70.710999 35.875 70.710999 C 40.750999 69.606003 39.623001 66.582001 38.083 65.246994 Z"/>
        <path id="path3" fill="#c45c11" stroke="none" d="M 107.290001 104.220001 C 96.135002 94.011002 94.589996 91.688004 94.310997 89.764999 L 94.203003 89.102005 C 94.060997 88.205994 93.963997 87.30899 93.963997 86.419998 C 93.963997 82.757004 95.630997 79.207001 102.541 76.51799 C 103.417999 76.177002 104.311996 75.804993 105.208 75.416 C 98.003998 77.694992 89.794998 82.386993 91.544998 91.841003 C 94.542999 108.156998 97.978996 125.759995 102.275002 124.473999 C 106.565002 123.184998 111.719002 116.315002 108.288002 108.585999 C 107.858002 107.155991 107.538002 105.695999 107.288002 104.225998 Z"/>
        <path id="path4" fill="#ff3300" stroke="none" d="M 235.130005 211.519989 C 233.707993 209.041992 230.891998 205.634003 227.914001 202.036987 C 220.367996 192.911987 211.037003 181.636993 211.037003 170.503998 C 211.037003 170.113998 211.046997 169.720993 211.074997 169.325989 C 211.177994 167.604996 211.227997 165.839996 211.227997 164.059998 C 211.227997 151.099991 208.733994 137.270996 207.425995 133.432999 C 206.246002 131.841995 200.925003 127.893997 194.337006 123.30899 C 200.143997 131.371994 205.522003 141.729996 206.102997 152.944 C 207.410004 178.279999 211.337006 218.47699 221.826996 235.513 C 223.139008 242.505005 223.139008 262.596008 220.082993 271.774994 C 217.020004 280.947998 212.216995 300.173004 220.514008 303.665985 C 226.634003 305.854004 226.634003 302.794006 228.382004 297.117981 C 230.128006 291.436005 237.123993 246.871002 241.925995 237.699005 C 241.307999 232.954987 239.619003 225.091003 238.141998 216.964996 C 237.091995 215.005005 236.072006 213.165009 235.132004 211.515015 Z"/>
        <path id="path5" fill="#ff3300" stroke="none" d="M 212.350006 160.360001 C 212.356003 160.480988 212.354004 160.604996 212.360001 160.729996 L 212.360001 160.649994 C 212.360001 160.549988 212.350006 160.459991 212.350006 160.360001 Z"/>
        <path id="path6" fill="#ffffff" stroke="none" d="M 74.068001 42.545013 C 70.226997 46.385986 66.705002 50.867004 62.863998 51.188004 C 59.022999 51.507004 64.464996 56.309006 65.426003 58.229004 C 66.385002 60.149002 64.464996 74.231995 61.903999 74.552994 C 59.664001 74.552994 55.823002 69.431 48.780998 70.390991 C 35.659 73.270996 36.938999 107.201004 36.938999 107.201004 C 39.360001 106.884995 42.161999 105.248001 44.924999 103.041 C 44.868999 99.96199 44.896 86.514999 49.422001 82.554993 C 48.84 84.298996 47.202999 95.546997 47.867001 100.473999 C 52.368 96.229996 56.327999 91.112991 57.743999 88.636002 C 60.305 84.158005 75.667 66.554001 85.588997 61.753998 C 95.511002 57.912994 118.557999 72.315994 118.557999 72.315994 C 118.557999 72.315994 126.558998 66.875 133.600998 62.074005 C 132.001007 59.834 101.911003 50.552002 93.913002 45.110992 C 90.391998 35.187988 77.907997 38.708008 74.069 42.549011 Z M 150.940002 76.675003 L 139.843994 83.289001 C 147.311996 91.610992 193.830002 120.845993 201.936996 125.752991 C 193.417007 109.542999 150.947006 76.677994 150.947006 76.677994 Z M 35.740002 68.250992 C 34.959999 68.918991 35.849998 69.475998 35.849998 69.475998 C 36.352001 69.141998 36.519001 67.582993 35.740002 68.250992 Z"/>
        <path id="path7" fill="#000000" stroke="none" d="M 414.76001 144.75 C 414.76001 144.75 412.868011 142.401993 412.867004 142.401993 L 407.950989 135.875 C 393.480988 116.423996 366.546997 80.218002 338.342987 84.944 C 335.304993 85.453003 331.531006 86.628998 326.80899 88.537994 L 327.365997 90.082001 C 332.53299 88.446991 336.811005 87.867004 340.082001 88.356995 C 356.79599 90.867004 371.414001 95.470001 394.489014 129.232986 L 394.518005 129.276993 L 394.553009 129.317001 C 410.855988 147.567993 421.145996 159.08699 421.145996 170.714996 C 421.145996 171.335999 421.079987 171.959 421.020996 172.580994 C 419.787994 172.548996 418.394989 172.602997 416.803009 172.679001 C 410.152008 172.991989 401.04599 173.42099 391.291992 167.571991 C 387.028015 165.013992 381.714996 160.567993 376.088989 155.862 C 376.088989 155.862 372.44101 152.819992 372.282013 152.687988 C 369.911011 148.789001 366.207001 145.009995 361.533997 141.750992 C 354.639008 136.919998 345.917999 133.444 339.834015 133.104996 C 332.334991 132.687988 328.372009 135.042999 322.372986 138.605988 L 318.737 140.732986 C 311.714996 144.725998 303.509003 142.820999 301.763 142.343994 C 298.463989 140.571991 295.018005 138.041 291.682007 135.588989 C 284.507996 130.314987 277.733002 125.332993 273.53299 129.005997 C 268.177002 133.695999 266.666992 141.19899 266.666992 149.507996 C 266.666992 152.839996 266.908997 156.301987 267.244995 159.763992 C 267.23999 174.843994 264.441986 198.726013 260.427002 208.757996 L 260.384003 208.865997 L 260.372986 208.980988 C 260.269012 210.022003 260.178986 211.401001 260.178986 213.036011 C 260.178986 219.291992 261.52301 229.295013 268.519012 238.493988 C 268.402008 240.382996 268.35199 242.779999 268.35199 245.528015 C 268.35199 252.15799 268.628998 260.733002 268.881012 268.578003 C 269.095001 275.184998 269.325012 282.345001 269.325012 287.112 C 269.325012 289.966003 269.243011 291.964996 269.02301 292.475983 C 268.683014 293.270996 268.619995 294.079987 268.619995 294.833984 C 268.619995 295.066986 268.626007 295.294983 268.631012 295.516998 C 268.638 295.725006 268.640015 295.915985 268.640015 296.092987 C 268.640015 296.742981 268.583008 297.177002 268.30899 297.415985 C 267.937012 297.743988 266.868988 298.03598 263.901001 297.565979 C 261.115997 297.126984 259.127014 295.923004 257.987 293.990997 C 256.40799 291.313995 256.786987 287.769989 257.667999 285.346985 C 259.506012 279.390991 255.897995 250.087006 254.707993 243.692017 C 253.395004 236.726013 244.731995 219.821014 239.580002 210.803009 C 237.996002 208.031006 235.240005 204.695007 232.048996 200.832001 C 230.035004 198.395996 227.953995 195.877014 225.942001 193.229004 C 225.942001 193.229004 225.182007 193.716003 224.834 193.940002 C 220.220001 188.43399 213.886993 176.17099 213.886993 163.000992 C 213.886993 162.082001 213.917999 161.155991 213.981995 160.229996 C 214.001999 159.440994 214.009995 158.661987 214.009995 157.893997 C 214.009995 141.345001 209.832993 129.937988 205.509995 127.056 L 202.001007 124.474991 C 202.001007 124.474991 201.822006 124.630997 201.725006 124.716003 C 194.128998 120.071991 152.149994 93.755005 141.643005 84.016998 L 141.559998 83.940002 C 141.559998 83.940002 140.934006 83.619995 140.869995 83.58699 C 140.763 83.472992 139.651001 82.291992 139.651001 82.291992 L 139.539001 82.220001 C 137.871002 81.224991 137.404999 81.141998 137.098007 81.141998 L 136.953995 81.141998 L 136.817993 81.190994 C 132.014008 82.936996 121.32 87.643997 117.836998 89.386002 L 116.902 89.852997 L 117.578003 90.651001 C 121.971001 95.839005 131.649994 106.328995 132.921005 107.703995 C 133.893997 111.089005 134.487 114.487991 134.487 116.339005 C 134.487 117.063995 134.397003 117.550003 134.203995 117.705994 C 131.496002 118.785004 129.194 118.410995 127.374001 116.589005 C 126.709 115.923996 124.612 114.067001 121.709999 111.496002 C 114.887001 105.451004 98.908997 91.296997 98.402 89.134003 C 98.402 89.132996 98.286003 88.384003 98.286003 88.384003 C 98.174004 87.703003 98.064003 87.030991 98.064003 86.367996 C 98.064003 84.382004 99.045998 82.466995 103.902 80.580002 C 109.514999 78.397995 115.734001 75.132004 118.941002 73.378998 L 119.93 72.837997 C 119.93 72.837997 118.449997 71.434998 118.440002 71.425995 C 118.439003 71.423996 118.246002 71.218002 118.246002 71.218002 L 118.148003 71.158997 C 112.698997 67.888 94.216003 57.485992 85.192001 60.979004 C 74.903999 65.953995 59.521999 83.688995 56.93 88.223999 C 55.773998 90.246002 52.483002 94.617004 48.455002 98.64299 C 48.443001 98.302002 48.43 97.964005 48.43 97.595001 C 48.43 92.158997 49.673 84.091995 50.099998 82.80899 L 51.056999 79.938995 L 48.782001 81.931 C 44.486 85.690002 43.993999 96.903 43.993999 101.815002 C 43.993999 102.125992 43.998001 102.367004 44 102.623993 C 41.566002 104.528 39.436001 105.696991 37.625999 106.160995 C 37.620998 106.018997 37.615002 105.832001 37.615002 105.832001 L 36.603001 106.119003 C 36.213001 106.231003 35.853001 106.251999 35.473 106.324005 C 35.321999 106.199005 35.171001 106.072998 35.171001 106.072998 C 33.761002 104.912994 32.189999 103.604004 31.535999 102.360001 C 31.541 101.709 31.545 101.035995 31.545 100.326996 C 31.545 93.154999 31.290001 83.311996 31.129999 77.186005 L 30.993999 71.186005 L 30.989 71.126999 C 30.785 69.466003 29.816 67.64299 28.789 65.71199 C 27.551001 63.382996 26.271 60.975006 26.271 58.770996 C 26.271 54.317001 25.841 39.356995 25.407 36.73999 L 25.396999 36.675995 L 25.375999 36.61499 C 24.587999 34.253998 17.415001 32.496002 14.754 31.920013 C 14.733 31.86499 14.691 31.816986 14.691 31.752014 C 14.691 31.721008 14.693 31.690002 14.697 31.656006 C 14.893 30.069 18.747999 27.261993 20.82 25.755005 C 20.82 25.755005 21.778 25.049011 21.993999 24.889008 C 32.077 22.355988 42.731998 21.890015 53.667999 23.515991 L 53.931999 23.554993 L 54.167999 23.432007 C 55.445 22.768005 58.188999 21.38501 62.215 19.575989 L 61.622002 18.046997 C 59.453999 18.76001 57.514999 19.325989 55.689999 19.78299 C 55.453999 19.777008 34.223 19.169006 34.223 19.169006 L 34.145 19.182007 C 26.052999 20.514008 19.790001 22.907013 14.731 25.072998 C 12.827 25.774994 10.772 26.687988 8.661 27.769012 C 8.694 27.752991 1.401 30.907013 1.401 30.907013 L 0.516 31.290009 L 1.014 32.109985 C 2.122 33.848999 7.379 35.049011 16.693001 36.656006 C 18.184999 36.912994 19.466 37.135986 20.198999 37.299988 C 22.122 40.795013 22.323999 45.408997 22.521 50.296005 C 22.667 53.904007 22.819 57.634003 23.641001 61.345001 L 23.656 61.410004 C 23.656 61.410004 28.437 73.358994 28.540001 73.61499 L 28.540001 103.593994 C 28.872999 104.460999 30.257999 107.483002 33.716999 109.039001 C 38.685001 108.349991 43.300999 106.326004 47.723999 102.901001 C 47.764999 102.876999 48.998001 102.134995 48.998001 102.134995 C 48.998001 102.134995 48.962002 102.005005 48.931 101.893997 C 54.588001 97.149002 59.25 90.742004 63.745998 84.514999 C 72.249001 72.738998 80.280998 61.617004 93.755997 63.821991 C 98.929001 64.668991 103.358002 67.039993 107.639999 69.332001 C 108.988998 70.054001 110.373001 70.770004 111.768997 71.455002 C 108.861 72.074005 106.051003 72.830994 103.473 73.830994 C 102.431999 74.188995 101.404999 74.626999 100.362999 75.158997 C 100.362999 75.160004 97.994003 76.397995 97.994003 76.397995 L 97.918999 76.556992 C 97.918999 76.556992 97.883003 76.612991 97.847 76.668991 C 95.646004 78.224991 93.887001 80.194992 92.623001 82.535004 L 92.622002 82.537003 C 92.607002 82.563995 92.588997 82.58699 92.574997 82.613998 C 92.574997 82.613998 93.293999 83.050003 93.668999 83.278 C 93.352997 84.251999 93.181 85.291 93.181 86.416 C 93.181 87.251999 93.263 88.171997 93.431 89.227005 C 93.431 89.229004 93.538002 89.89299 93.538002 89.89299 C 93.870003 92.166 95.771004 94.73999 106.575996 104.638 C 106.836998 106.149994 107.150002 107.528992 107.541 108.821991 L 107.556 108.871002 L 107.577003 108.916992 C 108.346001 110.647003 108.633003 112.255005 108.633003 113.690994 C 108.633003 115.556 108.149002 117.132004 107.607002 118.315002 C 106.405998 120.927994 104.236 123.037994 102.079002 123.684998 C 101.93 123.729996 101.716003 123.755997 101.397003 123.561005 C 97.850998 121.390991 94.433998 102.798004 92.392998 91.688995 C 92.209 90.694992 92.140999 89.712997 92.186996 88.772003 L 90.558998 88.585999 C 88.709 98.877991 93.155998 112.082001 96.727997 122.690002 L 97.549004 125.134995 L 102.616997 126.582993 L 102.926003 126.389999 C 107.817001 123.335999 112.792 119.535995 112.792 112.55899 C 112.792 111.438995 112.607002 110.201996 112.330002 108.908005 C 114.061996 110.035995 115.777 111.580002 117.568001 113.203003 C 122.211998 117.410995 127.474998 122.181 134.651001 120.343002 L 134.725998 120.324005 L 134.794998 120.291992 C 137.830994 118.875 138.791 117.119003 140.106995 114.371994 L 140.203995 114.169998 L 140.184006 113.945999 C 139.389008 104.891998 134.201004 99.889999 129.184998 95.052002 C 127.307999 93.242004 125.555 91.496994 123.984001 89.576004 C 126.873001 87.526993 131.440002 85.33699 137.848999 85.339996 C 141.598007 88.182999 145.268005 91.319 148.817993 94.358994 C 154.582001 99.294998 160.541 104.399994 167.199005 108.567993 C 167.227997 108.585999 192.578995 123.071991 192.880997 123.244995 C 201.315994 134.261993 202.873993 152.204987 204.516998 171.203995 C 205.434998 181.808014 206.384995 192.773987 208.621002 202.69101 C 211.404007 215.028992 215.746994 226.122009 219.578995 235.90799 L 220.332993 237.838013 C 221.167999 239.973999 221.511002 242.609009 221.511002 245.580994 C 221.511002 252.657013 219.567993 261.654999 217.667007 270.442993 C 215.809006 279.044983 214.005997 287.384979 214.005997 293.855988 C 214.005997 299.303009 215.283997 303.424988 218.884003 305.255981 L 219.024994 305.326996 L 226.352997 305.993988 L 226.628006 305.684998 C 234.806 296.53299 244.225998 246.670013 244.225998 227.842987 C 244.225998 227.772003 244.222 227.716003 244.222 227.647003 C 244.990005 229.828003 245.772995 231.97699 246.548004 234.059998 C 250.718002 245.248993 254.656998 255.817993 254.692001 272.566986 L 254.524994 278.708984 C 254.436996 280.867004 254.345993 283.097992 254.345993 285.277008 C 254.345993 291.877991 255.175003 298.020996 259.423004 300.328003 C 262.127014 301.615997 266.536011 301.024994 268.826996 299.701996 C 273.993011 296.946991 275.463989 288.960999 275.463989 279.557983 C 275.463989 272.759003 274.696014 265.221985 273.997986 258.384979 C 273.450012 253.002991 272.932007 247.919006 272.927002 244.295013 C 272.915009 236.153015 270.748993 231.895996 268.653992 227.776001 C 267.207001 224.93399 265.713013 221.998016 264.924988 217.722992 C 264.488007 215.359009 264.300995 213.063995 264.300995 210.824005 C 264.300995 203.675995 266.214996 197.098999 268.080994 190.687012 C 269.222992 186.763 270.403015 182.70401 271.071991 178.674988 C 271.973999 173.227997 272.169006 167.536987 272.169006 161.881989 C 272.169006 159.755997 272.143005 157.635986 272.11499 155.533997 C 272.088013 153.464996 272.061005 151.422989 272.061005 149.421997 C 272.061005 143.460999 272.306 137.873001 273.457001 132.977997 C 280.095001 128.889999 286.234985 133.97699 292.727997 139.377991 C 296.906006 142.852997 301.225006 146.445999 305.735992 147.388 C 313.709015 149.054993 319.100006 145.692001 324.312988 142.437988 C 329.81601 139.003998 335.013 135.760986 343.161987 138.154999 C 354.627014 141.523987 362.84201 148.773987 370.78299 155.787994 C 383.513 167.028 396.677002 178.649994 423.390015 175.054993 L 423.833008 174.993988 L 424.02301 174.587997 C 425.213013 172.047989 425.714996 169.528992 425.714996 167.071991 C 425.674988 158.131989 419.054993 150.031998 414.725006 144.731995 Z M 35.52 71.634995 L 36.061001 71.511993 C 38.976002 70.852005 39.888 69.515991 40.139999 68.511993 C 40.530998 66.951996 39.569 65.444 38.625999 64.625992 L 38.335999 64.375992 L 37.958 64.436996 C 34.752998 64.949997 34.234001 66.880005 34.234001 68.074005 C 34.234001 68.25 34.247002 68.404999 34.263 68.541992 C 34.348999 69.921997 35.169998 71.127991 35.205002 71.177994 L 35.52 71.634995 Z M 133.123993 4.203003 C 149.011993 6.273987 170.798996 16.727997 191.403 32.169006 C 208.826996 45.225006 233.389008 67.807999 251.453003 101.248001 L 251.509995 101.352997 L 251.595993 101.438004 C 265.067993 114.914993 269.382996 118.634995 279.091003 114.938004 C 281.662994 113.957001 286.169006 111.289001 291.875 107.910995 L 300.326996 102.960999 L 299.552002 101.513992 C 287.904999 107.30899 276.164001 112.845993 271.747009 111.397995 C 259.536987 107.397003 252.302002 94.75 245.304993 82.518997 C 242.554993 77.71199 239.957001 73.171997 237.123993 69.289993 L 237.095993 69.248993 L 210.595001 40.902008 L 209.705994 40.187012 C 191.345993 25.471008 170.565994 8.768005 143.856003 2.014008 C 119.959 -4.028992 100.250999 2.673004 82.112 10.057007 L 82.681999 11.596008 C 96.374001 7.016998 116.246002 2.019989 133.106003 4.221008 Z M 34.264999 68.580002 C 34.263 68.569 34.263 68.552994 34.263 68.541992 C 34.262001 68.537994 34.261002 68.533997 34.261002 68.528992 L 34.264999 68.580002 Z"/>
        <path id="path8" fill="#ffffff" stroke="none" d="M 36.666 69.080994 C 36.666 69.647095 36.303352 70.106003 35.855999 70.106003 C 35.408649 70.106003 35.046001 69.647095 35.046001 69.080994 C 35.046001 68.514908 35.408649 68.056 35.855999 68.056 C 36.303352 68.056 36.666 68.514908 36.666 69.080994 Z"/>
        <path id="path9" fill="#000000" stroke="none" d="M 115.489998 71.337997 C 118.226997 70.242996 133.826996 60.115997 142.585999 58.473999 C 135.195999 61.757996 117.68 73.528 117.68 73.528 L 115.489998 71.337997 Z"/>
        <path id="path10" fill="#000000" stroke="none" d="M 111.110001 71.612 C 111.110001 71.612 132.459 57.654007 150.522995 56.559006 C 142.585007 60.391006 119.595001 73.528 113.847 75.444 C 110.014999 75.990997 112.477997 73.253998 112.477997 73.253998 L 111.117996 71.612 Z"/>
        <path id="path11" fill="#000000" stroke="none" d="M 134.789993 82.013 L 144.779999 78.043991 L 138.479996 84.612 L 136.020004 83.791992 Z"/>
        <path id="path12" fill="#000000" stroke="none" d="M 135.610001 81.875992 L 152.169998 75.306992 L 139.580002 83.51799 Z"/>
        <path id="path13" fill="#c45c11" stroke="none" d="M 204.169998 140.98999 C 204.169998 140.98999 207.044006 164.801987 207.044006 182.867004 C 209.917999 198.467987 225.108002 222.278992 224.697998 240.753998 C 224.287003 259.22998 215.664993 293.714996 218.539001 298.231995 C 221.412994 302.747986 225.518005 304.389984 226.751007 302.337006 C 227.981003 300.283997 239.888 257.177002 239.888 246.09201 C 239.888 235.006989 236.192993 220.638 229.214005 209.553009 C 222.235001 198.467987 212.238007 177.535995 211.078003 169.321991 C 209.927994 161.091995 205.817993 143.442001 204.177994 140.972 Z"/>
        <path id="path14" fill="#e6e6e6" stroke="none" d="M 204.270004 141.829987 C 204.768997 146.153 207.046997 166.786987 207.046997 182.876007 C 208.011002 188.113007 210.367004 194.278015 213.050995 200.854004 C 211.638 194.645996 212.964996 187.067993 208.278 162.554001 C 206.878006 152.68399 205.507996 146.143997 204.268005 141.82399 Z"/>
        <path id="path15" fill="#ffffff" stroke="none" opacity="0.1" d="M 378.950012 108.139999 C 364.364014 92.589005 352.979004 89.464996 340.165985 87.541 C 322.992004 84.964996 287.769989 110.729996 278.764008 114.164993 C 275.773987 115.304001 273.352997 115.729004 270.950989 115.298004 C 271.039001 115.966003 271.092987 116.358002 271.092987 116.358002 C 271.092987 116.358002 296.957001 114.716003 311.325989 106.916 C 325.695007 99.115997 361.412994 96.651993 379.06601 109.789001 C 379.026001 109.259003 378.985992 108.709 378.946014 108.138992 Z M 53.75 22.709015 C 40.77 20.778992 29.910999 22.019012 21.556 24.140991 C 19.330999 25.834015 14.412 29.041016 13.851 31.34201 C 14.421 31.713989 14.749 31.924988 14.749 31.924988 C 14.749 31.924988 32.966 23.988007 55.136002 23.166992 C 54.928001 22.877014 54.715 22.606995 54.504002 22.321991 C 54.245998 22.45401 53.981998 22.588013 53.75 22.709015 Z M 133.186996 3.388 C 117.041 1.282013 98.095001 5.553986 82.450996 10.779999 C 82.597 11.287994 82.685997 11.578003 82.685997 11.578003 C 85.925003 11.67099 167.214005 3.459991 225.516006 65.042999 C 225.487 64.222992 225.438004 63.403 225.376999 62.582001 C 194.207001 27.059998 155.667007 6.317993 133.186996 3.388 Z"/>
    </g>
    <text id="URL" xml:space="preserve" x="5" y="265" font-family="Times New Roman" font-size="144" fill="#000000">URL</text>
</svg>
